<svg width="45" height="48" viewBox="0 0 45 48" fill="none" xmlns="http://www.w3.org/2000/svg">
<path d="M19.7692 27.1007C19.7828 27.2298 19.7906 27.3781 19.7906 27.5284C19.7906 28.773 19.2581 29.8944 18.4077 30.6843L18.4057 30.6862C14.0852 34.6667 9.00585 37.9131 3.41548 40.1808L3.08388 40.3003C2.62159 40.4891 2.08128 40.6374 1.52146 40.7184L1.4844 40.7222C1.40637 40.7395 1.31665 40.7492 1.22497 40.7492C0.548115 40.7492 0 40.2078 0 39.5392C0 39.5142 0 39.4872 0.00195059 39.4622V39.466C0.023407 39.1924 0.079974 38.9362 0.1658 38.6973L0.159948 38.7185C1.6619 34.4933 6.74903 25.3166 8.94344 21.5346C11.6723 16.7969 18.829 5.39876 19.896 4.14835C19.9662 4.0578 20.0735 4 20.1964 4C20.2568 4 20.3154 4.01349 20.3661 4.04046L20.3641 4.03853C20.5416 4.12331 20.6879 4.23313 20.5085 4.86507C19.5722 8.24251 18.2146 15.5985 19.619 25.6557C19.6912 26.1759 19.7711 26.6518 19.7711 27.1007H19.7692Z" fill="#00ADEE"/>
<path d="M21.5228 31.9308C22.225 31.4376 23.1008 31.1428 24.0469 31.1428C24.513 31.1428 24.9617 31.2141 25.383 31.3471L25.3518 31.3394C31.5215 33.2313 36.8778 36.0616 41.5553 39.7049L41.45 39.6259C41.8908 39.9689 42.277 40.3484 42.6125 40.7704L42.6242 40.7839C42.8212 40.9996 42.9422 41.2848 42.9422 41.5988C42.9422 42.0689 42.671 42.4774 42.2751 42.6797L42.2673 42.6835C42.0547 42.7857 41.8069 42.8685 41.5475 42.9147L41.53 42.9167C37.0826 43.749 26.4714 43.9648 22.0709 43.9975C16.5547 44.0361 2.99418 43.6141 1.35179 43.3463C1.17429 43.3213 1.03579 43.1787 1.02214 43.0034V43.0015C1.02214 42.8069 1.02214 42.6296 1.68144 42.4678C5.11447 41.5757 12.2244 39.0576 20.3563 32.8344C20.7718 32.4838 21.1463 32.1832 21.5228 31.9289V31.9308Z" fill="#00ADEE"/>
<path d="M24.8973 28.0371C23.6742 27.4668 22.775 26.3917 22.4649 25.0912L22.459 25.0623C21.6515 21.7484 21.1892 17.9452 21.1892 14.0341C21.1892 11.6026 21.3687 9.21356 21.7139 6.87844L21.6807 7.14432C21.7646 6.55476 21.9148 6.02108 22.1255 5.52014L22.1099 5.56253C22.2737 5.06738 22.738 4.7148 23.2841 4.7148C23.5338 4.7148 23.7659 4.78801 23.959 4.91324L23.9551 4.91132C24.1716 5.06352 24.3589 5.23307 24.5247 5.42188L24.5286 5.42574C27.4818 8.81667 32.9766 17.793 35.2042 21.5288C37.9915 26.2279 44.4304 38.0422 44.9707 39.5913C44.9883 39.6336 45 39.6837 45 39.7358C45 39.8648 44.9337 39.9785 44.8342 40.0479H44.8322C44.6684 40.1577 44.5026 40.2232 44.0423 39.7608C41.5182 37.2735 35.7718 32.4318 26.2568 28.6035C25.7555 28.4089 25.3088 28.2317 24.8992 28.0371H24.8973Z" fill="#00ADEE"/>
</svg>
